<?xml version="1.0" encoding="UTF-8"?>
<svg xmlns="http://www.w3.org/2000/svg" xmlns:xlink="http://www.w3.org/1999/xlink" width="24px" height="24px" viewBox="0 0 24 24" version="1.1">
<g id="surface1">
<path style=" stroke:none;fill-rule:nonzero;fill:rgb(0%,0%,0%);fill-opacity:1;" d="M 23.246094 18.582031 L 23.179688 18.425781 L 21.292969 13.835938 C 21.070312 13.375 20.925781 13.019531 20.355469 13.019531 L 18.453125 13.019531 L 18.453125 12.355469 C 19.089844 11.957031 19.515625 11.25 19.515625 10.441406 C 19.515625 9.636719 19.089844 8.929688 18.453125 8.53125 L 18.453125 4.472656 C 18.453125 3.792969 17.902344 3.242188 17.222656 3.242188 L 2.492188 3.242188 C 1.8125 3.242188 1.257812 3.792969 1.257812 4.472656 L 1.257812 14.742188 C 1.257812 15.421875 1.8125 15.972656 2.492188 15.972656 L 13.75 15.972656 L 13.75 20.757812 L 20.765625 20.757812 L 22.808594 19.734375 C 23.246094 19.539062 23.445312 19.019531 23.246094 18.582031 Z M 17.878906 8.273438 C 17.679688 8.214844 17.472656 8.183594 17.257812 8.183594 C 16.011719 8.183594 15 9.195312 15 10.441406 C 15 11.691406 16.011719 12.703125 17.257812 12.703125 C 17.472656 12.703125 17.679688 12.667969 17.878906 12.613281 L 17.878906 13.019531 L 14.742188 13.019531 L 12.273438 11.621094 L 11.316406 9.304688 C 11.179688 8.898438 10.769531 8.660156 10.363281 8.722656 L 8.527344 5.5 C 8.449219 5.359375 8.273438 5.3125 8.136719 5.390625 C 7.996094 5.46875 7.949219 5.644531 8.027344 5.785156 L 9.820312 8.9375 C 9.519531 9.15625 9.378906 9.546875 9.503906 9.917969 L 10.28125 12.46875 L 13.21875 15.394531 L 2.492188 15.394531 C 2.128906 15.394531 1.835938 15.101562 1.835938 14.742188 L 1.835938 4.472656 C 1.835938 4.113281 2.128906 3.820312 2.492188 3.820312 L 17.222656 3.820312 C 17.585938 3.820312 17.878906 4.113281 17.878906 4.472656 Z M 17.878906 8.273438 "/>
<path style=" stroke:none;fill-rule:nonzero;fill:rgb(0%,0%,0%);fill-opacity:1;" d="M 7.105469 9.347656 L 3.441406 9.347656 C 3.28125 9.347656 3.152344 9.21875 3.152344 9.058594 L 3.152344 5.382812 C 3.152344 5.222656 3.28125 5.09375 3.441406 5.09375 L 7.105469 5.09375 C 7.265625 5.09375 7.394531 5.222656 7.394531 5.382812 L 7.394531 9.058594 C 7.394531 9.21875 7.265625 9.347656 7.105469 9.347656 Z M 7.105469 9.347656 "/>
<path style=" stroke:none;fill-rule:nonzero;fill:rgb(0%,0%,0%);fill-opacity:1;" d="M 8.582031 10.851562 L 3.441406 10.851562 C 3.214844 10.851562 3.03125 10.667969 3.03125 10.441406 C 3.03125 10.214844 3.214844 10.03125 3.441406 10.03125 L 8.582031 10.03125 C 8.808594 10.03125 8.992188 10.214844 8.992188 10.441406 C 8.992188 10.667969 8.808594 10.851562 8.582031 10.851562 Z M 8.582031 10.851562 "/>
<path style=" stroke:none;fill-rule:nonzero;fill:rgb(0%,0%,0%);fill-opacity:1;" d="M 6.054688 12.605469 L 3.441406 12.605469 C 3.214844 12.605469 3.03125 12.421875 3.03125 12.195312 C 3.03125 11.96875 3.214844 11.785156 3.441406 11.785156 L 6.054688 11.785156 C 6.28125 11.785156 6.464844 11.96875 6.464844 12.195312 C 6.464844 12.421875 6.28125 12.605469 6.054688 12.605469 Z M 6.054688 12.605469 "/>
</g>
</svg>
