<?xml version="1.0" encoding="UTF-8" standalone="no"?>
<svg
   xmlns:dc="http://purl.org/dc/elements/1.1/"
   xmlns:cc="http://creativecommons.org/ns#"
   xmlns:rdf="http://www.w3.org/1999/02/22-rdf-syntax-ns#"
   xmlns:svg="http://www.w3.org/2000/svg"
   xmlns="http://www.w3.org/2000/svg"
   xmlns:sodipodi="http://sodipodi.sourceforge.net/DTD/sodipodi-0.dtd"
   xmlns:inkscape="http://www.inkscape.org/namespaces/inkscape"
   version="1.1"
   x="0px"
   y="0px"
   viewBox="0 0 100 100"
   enable-background="new 0 0 100 100"
   xml:space="preserve"
   id="svg2"
   inkscape:version="0.48.4 r9939"
   width="100%"
   height="100%"
   sodipodi:docname="noun_89854_cc.svg"><metadata
     id="metadata28"><rdf:RDF><cc:Work
         rdf:about=""><dc:format>image/svg+xml</dc:format><dc:type
           rdf:resource="http://purl.org/dc/dcmitype/StillImage" /><dc:title></dc:title></cc:Work></rdf:RDF></metadata><defs
     id="defs26" /><sodipodi:namedview
     pagecolor="#ffffff"
     bordercolor="#666666"
     borderopacity="1"
     objecttolerance="10"
     gridtolerance="10"
     guidetolerance="10"
     inkscape:pageopacity="0"
     inkscape:pageshadow="2"
     inkscape:window-width="1600"
     inkscape:window-height="848"
     id="namedview24"
     showgrid="false"
     inkscape:zoom="1.888"
     inkscape:cx="-13.294492"
     inkscape:cy="62.5"
     inkscape:window-x="-8"
     inkscape:window-y="-8"
     inkscape:window-maximized="1"
     inkscape:current-layer="svg2" /><g
     id="g4"
     transform="translate(0,-3.904)"><path
       d="M 96.863,81.328 96.576,80.685 88.728,61.56 c -0.94,-1.92 -1.532,-3.4 -3.921,-3.4 h -7.911 v -2.773 c 2.653,-1.664 4.423,-4.606 4.423,-7.971 0,-3.362 -1.77,-6.304 -4.423,-7.969 V 22.539 c 0,-2.828 -2.304,-5.127 -5.135,-5.127 H 10.385 c -2.832,0 -5.136,2.299 -5.136,5.127 v 42.789 c 0,2.829 2.304,5.129 5.136,5.129 h 46.902 v 19.939 h 29.24 l 8.513,-4.264 c 1.823,-0.816 2.643,-2.979 1.823,-4.804 z M 74.493,38.373 c -0.823,-0.235 -1.689,-0.369 -2.588,-0.369 -5.196,0 -9.411,4.214 -9.411,9.411 0,5.201 4.215,9.413 9.411,9.413 0.898,0 1.764,-0.134 2.588,-0.369 v 1.7 H 61.43 L 51.142,52.319 47.159,42.666 C 46.586,40.979 44.88,39.99 43.174,40.246 l -7.637,-13.43 c -0.327,-0.578 -1.061,-0.778 -1.639,-0.451 -0.577,0.327 -0.779,1.062 -0.451,1.639 l 7.469,13.133 c -1.246,0.912 -1.835,2.553 -1.311,4.088 l 3.23,10.625 12.239,12.202 H 10.385 c -1.507,0 -2.732,-1.223 -2.732,-2.726 V 22.539 c 0,-1.501 1.225,-2.723 2.732,-2.723 h 61.377 c 1.506,0 2.731,1.222 2.731,2.723 v 15.834 z"
       id="path6"
       inkscape:connector-curvature="0"
       style="fill:#000000" /><g
       id="g8"><path
         d="m 29.608,42.853 h -15.27 c -0.664,0 -1.202,-0.538 -1.202,-1.202 V 26.337 c 0,-0.664 0.538,-1.202 1.202,-1.202 h 15.271 c 0.664,0 1.202,0.538 1.202,1.202 v 15.314 c -0.001,0.665 -0.539,1.202 -1.203,1.202 z"
         id="path10"
         inkscape:connector-curvature="0"
         style="fill:#000000" /></g><g
       id="g12"><path
         d="m 35.758,49.123 h -21.42 c -0.943,0 -1.706,-0.764 -1.706,-1.707 0,-0.943 0.764,-1.707 1.706,-1.707 h 21.421 c 0.943,0 1.706,0.764 1.706,1.707 0,0.943 -0.764,1.707 -1.707,1.707 z"
         id="path14"
         inkscape:connector-curvature="0"
         style="fill:#000000" /></g><g
       id="g16"><path
         d="M 25.223,56.428 H 14.338 c -0.943,0 -1.707,-0.764 -1.707,-1.707 0,-0.943 0.764,-1.707 1.707,-1.707 h 10.886 c 0.943,0 1.707,0.764 1.707,1.707 -0.001,0.943 -0.765,1.707 -1.708,1.707 z"
         id="path18"
         inkscape:connector-curvature="0"
         style="fill:#000000" /></g></g></svg>