<?xml version="1.0" encoding="utf-8"?>
<!-- Uploaded to: SVG Repo, www.svgrepo.com, Generator: SVG Repo Mixer Tools -->
<svg fill="#000000" width="800px" height="800px" viewBox="0 0 32 32" version="1.1" xmlns="http://www.w3.org/2000/svg">
<title>alt-white-book</title>
<path d="M0 26.016q0 0.832 0.576 1.408t1.44 0.576q1.92 0.096 3.808 0.288t4.352 0.736 3.904 1.28q0.096 0.736 0.64 1.216t1.28 0.48 1.28-0.48 0.672-1.216q1.44-0.736 3.872-1.28t4.352-0.736 3.84-0.288q0.8 0 1.408-0.576t0.576-1.408v-24q0-0.832-0.576-1.408t-1.408-0.608q-0.032 0-0.096 0.032t-0.128 0q-9.504 0.256-12.672 2.528-1.024 0.768-1.12 1.44l-0.096-0.32q-0.576-1.28-3.168-2.176-3.648-1.28-10.528-1.472-0.064 0-0.128 0t-0.064-0.032q-0.832 0-1.44 0.608t-0.576 1.408v24zM4 24.128v-19.936q6.88 0.512 10.016 2.080v19.744q-3.104-1.536-10.016-1.888zM18.016 26.016v-19.744q3.104-1.568 9.984-2.080v19.936q-6.912 0.352-9.984 1.888z"></path>
</svg>